<?xml version="1.0" encoding="UTF-8" standalone="no"?>
<svg viewBox="0 0 512 512" xmlns="http://www.w3.org/2000/svg">
  <!-- Background circle -->
  <circle cx="256" cy="256" r="250" fill="#363636" />
  
  <!-- Outer pokeball ring -->
  <circle cx="256" cy="256" r="240" fill="none" stroke="#ffffff" stroke-width="8" />
  
  <!-- Pokeball top half -->
  <path d="M256 128 A128 128 0 0 1 384 256 L256 256 Z" fill="#FF5252" />
  <path d="M256 128 A128 128 0 0 0 128 256 L256 256 Z" fill="#FF5252" />
  
  <!-- Pokeball bottom half -->
  <path d="M256 384 A128 128 0 0 0 384 256 L256 256 Z" fill="#ffffff" />
  <path d="M256 384 A128 128 0 0 1 128 256 L256 256 Z" fill="#ffffff" />
  
  <!-- Middle horizontal line -->
  <line x1="128" y1="256" x2="384" y2="256" stroke="#363636" stroke-width="16" />
  
  <!-- Center button -->
  <circle cx="256" cy="256" r="48" fill="#ffffff" stroke="#363636" stroke-width="12" />
  
  <!-- Magnifying glass -->
  <circle cx="220" cy="220" r="60" fill="none" stroke="#4285F4" stroke-width="16" />
  <line x1="260" y1="260" x2="310" y2="310" stroke="#4285F4" stroke-width="20" stroke-linecap="round" />
  
  <!-- Pikachu silhouette -->
  <path d="M340 140 Q360 120, 380 140 Q400 160, 385 190 Q365 210, 340 205 Q315 200, 320 175 Q325 150, 340 140" fill="#FFDE59" />
  <!-- Eyes -->
  <circle cx="345" cy="160" r="5" fill="#363636" />
  <circle cx="370" cy="160" r="5" fill="#363636" />
  <!-- Smile -->
  <path d="M345 185 Q358 195, 370 185" fill="none" stroke="#363636" stroke-width="3" stroke-linecap="round" />
  <!-- Ears -->
  <path d="M335 140 L325 110 L345 130 Z" fill="#FFDE59" stroke="#FFDE59" stroke-width="1" />
  <path d="M385 140 L405 115 L380 130 Z" fill="#FFDE59" stroke="#FFDE59" stroke-width="1" />
</svg>